<?xml version="1.0" encoding="UTF-8"?>
<svg width="128px" height="128px" viewBox="0 0 128 128" xmlns="http://www.w3.org/2000/svg" xmlns:xlink="http://www.w3.org/1999/xlink" version="1.1">
 <!-- Generated by Pixelmator Pro 1.5.5 -->
 <path id="Rounded-Rectangle" d="M10 0 C4.477 0 0 4.477 0 10 L0 118 C0 123.523 4.477 128 10 128 L118 128 C123.523 128 128 123.523 128 118 L128 10 C128 4.477 123.523 0 118 0 Z" fill="#931e52" fill-opacity="1" stroke="none"/>
 <path id="令" d="M30.25 73.125 L30.25 65.25 94.75 65.25 94.75 89.25 C94.75 91.5 94.125 93.25 92.875 94.5 91.125 95.75 86.625 97.125 79.375 98.625 78.625 95.375 77.375 92.25 75.625 89.25 L83.5 89.25 C84.5 89.25 85.125 89.125 85.375 88.875 85.625 88.625 85.75 88.25 85.75 87.75 L85.75 73.125 59.875 73.125 59.875 106.5 50.875 106.5 50.875 73.125 Z M63.25 30 C57.25 37.25 50.75 43.625 43.75 49.125 L82.75 49.125 C80.25 47.125 76.25 43.625 70.75 38.625 69 36.625 66.5 33.75 63.25 30 Z M60.625 18.375 L69.25 22.5 68.5 23.625 C74.75 30.625 80.5 36.125 85.75 40.125 91.5 44.375 99.125 48.625 108.625 52.875 106.875 54.625 105.875 55.75 105.625 56.25 104.875 57.5 104.125 59.125 103.375 61.125 94.375 56.375 88.25 52.875 85 50.625 L85 57.75 40 57.75 40 51.75 C33.5 56.25 28.375 59.5 24.625 61.5 22.625 58.25 20.75 55.75 19 54 28.5 49 36.125 44 41.875 39 48.875 32.75 55.125 25.875 60.625 18.375 Z" fill="#ffffff" fill-opacity="1" stroke="none"/>
</svg>
